<?xml version="1.0" encoding="utf-8"?>
<!-- Generator: Adobe Illustrator 16.0.4, SVG Export Plug-In . SVG Version: 6.00 Build 0)  -->
<!DOCTYPE svg PUBLIC "-//W3C//DTD SVG 1.1//EN" "http://www.w3.org/Graphics/SVG/1.1/DTD/svg11.dtd">
<svg version="1.1" id="Layer_1" xmlns="http://www.w3.org/2000/svg" xmlns:xlink="http://www.w3.org/1999/xlink" x="0px" y="0px"
	 width="397.692px" height="153.077px" viewBox="0 0 397.692 153.077" enable-background="new 0 0 397.692 153.077"
	 xml:space="preserve">
<g>
	<g>
		<g>
			<path fill-rule="evenodd" clip-rule="evenodd" fill="#FFFFFF" d="M105.734,63.69c-5.692,1.848-11.257,3.869-17.453,1.561
				c-6.565-2.445-9.353-5.641-9.838-12.646c-0.115-1.664-0.171-3.332-0.284-5.542c-0.368,1.03-0.704,1.581-0.752,2.154
				c-0.461,5.493-4.358,8.196-8.556,10.698c-3.119,1.861-6.058,3.759-10.098,2.45c-3.282-1.064-6.624-1.819-8.943-4.578
				c-1.936-2.3-3.714-4.729-5.137-6.557c0.145,5.237,0.314,10.833,0.445,16.429c0.127,5.531-1.954,9.583-7.196,12.12
				c-2.789,1.35-5.527,2.895-7.254,6.061c-2.207,4.049-9.795,3.507-13.149-0.404c-2.181-2.539-4.766-4.739-6.839-7.352
				c-1.254-1.583-2.252-3.572-2.73-5.535c-1.998-8.183,0.408-15.653,4.733-22.443c3.665-5.763,8.187-10.595,15.112-13.033
				c6.47-2.277,13.251,0.849,14.615,7.691c0.057,0.287,0.181,0.563,0.279,0.872c2.11-2.135,2.25-4.323,0.578-6.78
				c-0.405-0.597-0.38-1.605-0.302-2.399c0.317-3.228,0.583-6.474,1.186-9.653c0.211-1.106,1.322-2.059,2.067-3.045
				c0.168-0.217,0.673-0.21,0.784-0.428c1.232-2.393,2.417-4.808,3.607-7.221c0.183-0.373,0.23-0.911,0.522-1.12
				c2.651-1.9,5.251-3.9,8.055-5.543c1.709-1.003,3.755-1.425,5.188-1.942c3.042,0.797,5.992,1.392,8.792,2.401
				c0.962,0.352,2.069,1.659,2.23,2.668c0.685,4.289,1.476,8.641,1.391,12.953c-0.088,4.723-0.462,9.367,2.371,14.434
				c-0.043-0.433-0.146-0.863-0.129-1.292c0.241-7.09,4.377-11.776,9.757-15.645c3.148-2.26,6.33-4.47,9.576-6.575
				c1.982-1.287,4.116-2.264,6.228-0.084c0.199,0.208,0.524,0.435,0.783,0.421c7.795-0.407,8.86,6.884,12.576,11.098
				c0.402,0.455,0.156,1.608,0.007,2.399c-0.528,2.777-0.985,5.586-1.783,8.286c-0.62,2.08-1.712,4.015-2.846,6.585
				c2.074,5.048-1.039,9.669-3.768,14.368c-0.621,1.062-1.305,2.084-1.961,3.124C106.976,62.993,106.355,63.343,105.734,63.69z"/>
		</g>
		<g>
			<path fill-rule="evenodd" clip-rule="evenodd" fill="#FFFFFF" d="M91.527,132.086c-1.62,1.387-2.836,3.142-4.454,3.682
				c-5.697,1.896-11.458,4.325-17.592,1.483c-0.187-0.085-0.421-0.156-0.61-0.12c-7.277,1.415-13.774-2.357-20.673-3.415
				c-3.6-0.551-8.177-1.587-10.672-5.617c-0.762-1.234-2.449-1.887-3.699-2.822c-4.165-3.122-7.744-6.777-9.72-11.682
				c-2.001-4.96-2.983-10.233-1.682-15.403c0.532-2.098,3.118-3.694,4.82-5.471c0.483-0.502,1.207-0.769,1.701-1.259
				c3.002-2.97,5.966-5.983,8.964-8.96c0.281-0.278,0.699-0.512,1.088-0.586c4.486-0.86,6.929-4.222,9.745-7.385
				c2.081-2.336,5.039-3.902,7.633-5.775c0.919-0.666,1.863-1.332,2.883-1.817c2.103-0.999,4.258-1.883,6.399-2.797
				c0.728-0.311,1.797-0.356,2.165-0.894c1.967-2.881,4.027-1.934,6.076-0.282c1.391,1.118,2.576,2.271,4.132,0.146
				c0.281-0.387,1.59-0.396,2.201-0.105c3.199,1.521,5.875,3.429,6.48,7.423c0.531,3.5,0.621,6.927,3.494,10.08
				c2.847,3.125,4.126,7.678,6.075,11.614c0.135,0.271,0.246,0.664,0.15,0.914c-1.572,4.112,1.701,5.671,4.006,7.807
				c1.914,1.772,3.95,3.517,5.424,5.628c1.205,1.73,2.147,3.93,2.374,6.012c0.794,7.299-6.179,17.986-13.138,20.235
				C93.957,133.088,92.427,132.265,91.527,132.086z"/>
		</g>
		<g>
			<path fill-rule="evenodd" clip-rule="evenodd" fill="#FFFFFF" d="M105.734,63.69c0.622-0.347,1.242-0.697,1.863-1.043
				c3.509-3,7.412-5.233,11.926-6.383c0.567-0.143,1.253-0.801,1.418-1.357c0.696-2.383,2.62-3.149,4.606-2.958
				c1.208,0.118,2.29,1.504,3.147,2.799c0.299,0.016,0.602,0.042,0.903,0.051c1.783,0.056,3.64-2.636,5.312-0.048
				c1.917,2.973,4.896,5.615,3.454,9.833c-0.4,1.17-0.536,2.447-0.673,3.687c-1.273,11.479-4.552,22.254-11.61,31.562
				c-1.641,2.17-3.823,4.144-6.16,5.524c-3.19,1.884-6.585,1.247-9.817-0.595c-4.49-2.562-8.169-5.747-9.88-10.858
				c-0.374-1.109-1.523-1.936-2.128-3.001c-0.994-1.75-2.574-3.577-2.599-5.391c-0.069-4.685-0.892-9.723,2.573-13.735
				C100.494,68.968,103.172,66.379,105.734,63.69z"/>
		</g>
	</g>
	<g>
		<g>
			<path fill="#FFFFFF" d="M153.502,7.142h16.109c5.084,0,8.939,0.395,11.56,1.189c2.625,0.792,4.734,2.39,6.347,4.806
				c1.613,2.416,2.419,6.299,2.419,11.671c0,3.628-0.568,6.16-1.705,7.59c-1.14,1.433-3.382,2.529-6.729,3.294
				c3.73,0.844,6.259,2.245,7.588,4.203c1.331,1.957,1.993,4.959,1.993,8.997v5.757c0,4.194-0.473,7.303-1.436,9.322
				c-0.959,2.024-2.486,3.402-4.58,4.144c-2.103,0.746-6.392,1.117-12.89,1.117h-18.675V7.142z M169.649,17.767v13.809
				c0.69-0.033,1.224-0.041,1.61-0.041c1.586,0,2.599-0.392,3.031-1.177c0.435-0.777,0.65-3.004,0.65-6.68
				c0-1.95-0.177-3.312-0.54-4.092c-0.354-0.777-0.818-1.265-1.398-1.479C172.428,17.903,171.308,17.79,169.649,17.767z
				 M169.649,41.237v17.37c2.277-0.075,3.724-0.432,4.351-1.073c0.629-0.641,0.94-2.213,0.94-4.719v-5.789
				c0-2.667-0.279-4.273-0.844-4.833C173.539,41.634,172.051,41.309,169.649,41.237z"/>
		</g>
		<g>
			<path fill="#FFFFFF" d="M196.878,7.142h26.924v12.429h-10.78v11.77h10.09v11.81h-10.09v13.653h11.848v12.431h-27.992V7.142z"/>
		</g>
		<g>
			<path fill="#FFFFFF" d="M265.564,7.142v62.092h-14.153l-8.396-28.23v28.23h-13.499V7.142h13.499l9.049,27.958V7.142H265.564z"/>
		</g>
		<g>
			<path fill="#FFFFFF" d="M309.091,29.998h-16.143v-5.636c0-3.553-0.158-5.777-0.463-6.671c-0.303-0.896-1.037-1.345-2.186-1.345
				c-1,0-1.678,0.388-2.031,1.148c-0.359,0.768-0.539,2.738-0.539,5.908v29.799c0,2.787,0.18,4.618,0.539,5.502
				c0.354,0.885,1.07,1.323,2.145,1.323c1.178,0,1.977-0.494,2.398-1.495c0.42-0.998,0.633-2.941,0.633-5.829v-7.364h-3.262v-9.429
				h18.908v33.326h-10.145l-1.494-4.452c-1.104,1.917-2.49,3.353-4.166,4.318c-1.674,0.955-3.648,1.433-5.928,1.433
				c-2.709,0-5.252-0.655-7.617-1.972c-2.365-1.317-4.164-2.947-5.391-4.894c-1.23-1.943-1.998-3.977-2.307-6.114
				c-0.311-2.135-0.461-5.334-0.461-9.606V29.499c0-5.928,0.322-10.232,0.959-12.918c0.639-2.686,2.473-5.146,5.506-7.385
				c3.027-2.239,6.947-3.358,11.756-3.358c4.727,0,8.652,0.969,11.77,2.917c3.123,1.941,5.158,4.244,6.096,6.92
				c0.953,2.668,1.422,6.552,1.422,11.642V29.998z"/>
		</g>
		<g>
			<path fill="#FFFFFF" d="M343.249,7.142l9.238,62.092h-16.502l-0.863-11.161h-5.777l-0.973,11.161h-16.693l8.234-62.092H343.249z
				 M334.692,47.066c-0.812-7.039-1.635-15.726-2.459-26.08c-1.643,11.891-2.678,20.581-3.096,26.08H334.692z"/>
		</g>
		<g>
			<path fill="#FFFFFF" d="M371.378,7.142v49.661h9.814v12.431h-25.965V7.142H371.378z"/>
		</g>
	</g>
	<g>
		<path fill="#FFFFFF" d="M179.884,138.454l-8.486-19.462c-1.118,0.259-2.313,0.259-3.517,0.259h-6.511v19.203h-7.891V78.441h15.346
			c13.375,0,19.291,9.174,19.291,20.32c0,7.63-3.001,14.313-9.344,17.747l9.6,21.946H179.884z M168.055,111.708
			c8.144,0,12.172-5.146,12.172-12.863c0-7.887-4.029-12.86-12.172-12.86h-6.685v25.723H168.055z"/>
		<path fill="#FFFFFF" d="M208.933,138.454V78.441h7.89v60.012H208.933z"/>
		<path fill="#FFFFFF" d="M239.447,138.454V78.441h13.802c16.203,0,21.946,13.547,21.946,30.007s-5.743,30.005-21.605,30.005
			H239.447z M253.59,130.911c9.516,0,13.633-9.259,13.633-22.462s-4.117-22.463-13.974-22.463h-5.915v44.926H253.59z"/>
		<path fill="#FFFFFF" d="M313.933,114.965v-7.63h17.402c0,18.09-4.628,31.977-19.202,31.977c-15.176,0-20.148-14.317-20.148-30.863
			c0-16.46,4.973-30.864,20.148-30.864c9.429,0,15.001,5.657,17.745,13.888l-7.028,3.946c-1.715-6.26-5.145-10.203-10.717-10.203
			c-8.917,0-12.261,10.203-12.261,23.233c0,13.117,3.344,23.316,12.261,23.316c7.885,0,10.629-7.887,10.802-16.8H313.933z"/>
		<path fill="#FFFFFF" d="M350.867,138.454V78.441h30.349v7.63h-22.458v20.664h19.115v7.543h-19.115v16.633h22.458v7.543H350.867z"
			/>
	</g>
</g>
</svg>
