<?xml version="1.0" encoding="utf-8"?>
<!-- Generator: Adobe Illustrator 16.0.4, SVG Export Plug-In . SVG Version: 6.00 Build 0)  -->
<!DOCTYPE svg PUBLIC "-//W3C//DTD SVG 1.1//EN" "http://www.w3.org/Graphics/SVG/1.1/DTD/svg11.dtd">
<svg version="1.1" id="Layer_1" xmlns="http://www.w3.org/2000/svg" xmlns:xlink="http://www.w3.org/1999/xlink" x="0px" y="0px"
	 width="360px" height="71.296px" viewBox="0 0 360 71.296" enable-background="new 0 0 360 71.296" xml:space="preserve">
<path fill="#FFFFFF" d="M15.221,13.531h15.072c7.748,0,11.714,4.727,11.714,10.499c0,3.991-2.017,6.821-5.61,8.047
	c5.549,1.286,8.481,5.28,8.481,10.626c0,7.184-4.765,12.586-13.488,12.586H15.221V13.531z M29.989,29.805
	c3.846,0,5.673-2.154,5.673-5.279c0-3.131-1.77-5.281-5.8-5.281h-8.168v10.561H29.989z M31.02,49.576
	c5.009,0,7.385-2.939,7.385-7.121c0-4.174-2.559-7.125-7.681-7.125h-9.029v14.246H31.02z"/>
<path fill="#FFFFFF" d="M81.125,55.289h-7.449l-7.447-10.992c-1.157,0.128-2.316,0.251-3.475,0.251h-3.901v10.741h-6.471V13.531
	h10.372c11.475,0,17.88,6.017,17.88,15.595c0,6.456-2.871,10.868-8.303,13.27L81.125,55.289z M62.509,38.958
	c8.233,0,11.532-3.628,11.532-9.832c0-6.26-3.414-9.882-11.532-9.882h-3.657v19.714H62.509z"/>
<path fill="#FFFFFF" d="M87.405,34.412c0-12.469,9.519-21.435,21.423-21.435c11.822,0,21.351,8.966,21.351,21.435
	c0,12.461-9.529,21.433-21.351,21.433C96.924,55.845,87.405,46.873,87.405,34.412 M123.585,34.412
	c0-8.904-6.102-15.605-14.757-15.605c-8.676,0-14.835,6.701-14.835,15.605c0,8.898,6.159,15.601,14.835,15.601
	C117.483,50.013,123.585,43.311,123.585,34.412"/>
<path fill="#FFFFFF" d="M136.403,34.412c0-12.469,9.516-21.435,21.415-21.435c11.834,0,21.352,8.966,21.352,21.435
	c0,12.461-9.518,21.433-21.352,21.433C145.918,55.845,136.403,46.873,136.403,34.412 M172.578,34.412
	c0-8.904-6.092-15.605-14.761-15.605c-8.665,0-14.828,6.701-14.828,15.605c0,8.898,6.163,15.601,14.828,15.601
	C166.486,50.013,172.578,43.311,172.578,34.412"/>
<path fill="#FFFFFF" d="M196.437,31.215l13.43-17.684h7.313l-14.703,19.531l16.352,22.227h-7.804l-12.812-17.441l-4.463,5.463
	v11.979h-6.472V13.531h6.472v17.197c0,1.9-0.242,4.422-0.485,6.131C194.176,34.961,195.402,32.629,196.437,31.215"/>
<path fill="#FFFFFF" d="M221.577,47.186l5.306-2.949c1.955,3.252,4.453,5.836,9.522,5.836c4.198,0,7.202-2.272,7.202-5.709
	c0-3.625-2.445-5.221-6.958-7.246l-2.751-1.225c-6.04-2.707-9.698-5.783-9.698-12.229c0-6.203,4.759-10.624,11.658-10.624
	c5.486,0,9.215,2.086,11.711,6.573l-5.06,3.126c-1.594-2.76-3.417-4.053-6.651-4.053c-3.301,0-5.374,2.031-5.374,4.856
	c0,3.13,1.775,4.541,5.987,6.388l2.678,1.231c7.079,3.129,10.863,6.443,10.863,13.136c0,7.316-5.678,11.548-13.481,11.548
	C228.656,55.845,223.89,51.912,221.577,47.186"/>
<rect x="258.072" y="13.531" fill="#FFFFFF" width="6.399" height="41.758"/>
<path fill="#FFFFFF" d="M274.66,13.531h11.409c13.302,0,22.147,8.344,22.147,20.881c0,12.523-8.781,20.877-22.147,20.877H274.66
	V13.531z M285.646,49.576c10.794,0,15.866-6.266,15.866-15.164c0-8.904-5.072-15.168-15.866-15.168h-4.522v30.332H285.646z"/>
<polygon fill="#FFFFFF" points="316.273,13.531 342.626,13.531 342.626,19.244 322.737,19.244 322.737,35.451 340.374,35.451 
	340.374,41.037 322.737,41.037 322.737,49.576 343.485,49.576 343.485,55.289 316.273,55.289 "/>
</svg>
