<?xml version="1.0" encoding="utf-8"?>
<!-- Generator: Adobe Illustrator 16.0.4, SVG Export Plug-In . SVG Version: 6.00 Build 0)  -->
<!DOCTYPE svg PUBLIC "-//W3C//DTD SVG 1.1//EN" "http://www.w3.org/Graphics/SVG/1.1/DTD/svg11.dtd">
<svg version="1.1" id="Layer_1" xmlns="http://www.w3.org/2000/svg" xmlns:xlink="http://www.w3.org/1999/xlink" x="0px" y="0px"
	 width="546px" height="164px" viewBox="0 0 546 164" enable-background="new 0 0 546 164" xml:space="preserve">
<g>
	<g>
		<path fill-rule="evenodd" clip-rule="evenodd" fill="#FFFFFF" d="M268.565,101.5c0.23-0.908,0.713-1.275,1.584-1.153
			c1.065,0.151,1.581-0.424,2.057-1.277c0.913-1.614,1.8-3.269,2.944-4.711c0.871-1.097,0.943-2.146,0.692-3.371
			c-0.102-0.496-0.185-0.993-0.279-1.487c-0.553-2.931-2.31-5.136-5.021-5.931c-4.526-1.33-9.207-1.757-13.706,0.339
			c-1.06,0.495-2.353,1.046-2.881,1.953c-0.535,0.918-0.403,2.329-0.287,3.493c0.091,0.859,0.009,1.229-0.869,1.501
			c-3.987,1.242-8.063,0.912-12.125,0.743c-0.465-0.019-1.013-0.477-1.327-0.885c-0.729-0.937-1.291-2.006-2.005-2.953
			c-1.781-2.361-4.11-3.939-7.108-4.064c-1.646-0.073-3.345,0.186-4.957,0.57c-1.876,0.449-3.719,1.104-5.512,1.833
			c-2.078,0.845-4.064,1.929-6.142,2.774c-0.652,0.26-1.494,0.162-2.231,0.071c-0.528-0.065-1.008-0.503-1.542-0.594
			c-2.496-0.43-4.99-0.921-7.508-1.146c-1.69-0.148-3.416,0.091-5.123,0.184c-0.862,0.047-1.726,0.129-2.578,0.254
			c-1.683,0.246-3.359,0.523-5.035,0.812c-0.407,0.072-0.785,0.289-1.189,0.342c-4.097,0.565-8.051,1.62-11.824,3.335
			c-0.381,0.172-0.832,0.188-1.611,0.355c0.565-0.746,0.943-1.066,1.101-1.476c1.257-3.317,3.245-6.179,5.431-8.925
			c0.202-0.245,0.396-0.543,0.461-0.844c0.708-3.182-0.368-5.553-3.32-7.039c-1.522-0.768-3.206-1.207-4.729-1.97
			c-4.253-2.138-8.888-2.289-13.472-2.699c-0.778-0.067-1.572,0.1-2.353,0.059c-3.288-0.161-6.567-0.447-9.855-0.515
			c-1.838-0.038-3.682,0.328-5.526,0.4c-2.169,0.088-4.345,0.041-6.515,0.093c-2.876,0.073-5.754,0.162-8.625,0.292
			c-1.106,0.055-2.206,0.236-3.306,0.38c-1.487,0.189-2.976,0.393-4.458,0.601c-1.241,0.177-2.515,0.787-3.864-0.406
			c0.653-0.834,1.268-1.623,1.881-2.41c1.47-1.893,2.908-3.812,4.433-5.662c0.562-0.68,1.243-1.477,2.024-1.711
			c2.258-0.681,4.602-1.066,6.899-1.632c6.748-1.662,13.528-3.185,20.051-5.695c3.845-1.475,7.884-2.439,11.815-3.709
			c5.12-1.651,10.216-3.358,15.312-5.068c4.245-1.427,8.517-2.784,12.697-4.372c3.801-1.446,7.557-3.048,11.228-4.798
			c3.42-1.631,6.766-3.449,10.018-5.39c1.257-0.75,2.593-1.882,3.16-3.162c1.021-2.298,0.108-5.062-2.21-6.068
			c-3.625-1.571-7.486-2.604-11.253-3.831c-0.425-0.14-0.933,0.022-1.386-0.058c-3.173-0.57-6.343-1.171-9.512-1.759
			c-0.727-0.133-1.451-0.369-2.181-0.378c-6.021-0.072-12.039-0.176-18.06-0.111c-3.829,0.043-7.655,0.352-11.482,0.561
			c-1.664,0.091-3.329,0.184-4.986,0.35c-5.023,0.502-10.041,1.01-15.052,1.572c-3.298,0.37-6.593,0.78-9.871,1.286
			c-2.602,0.399-5.171,1.002-7.763,1.467c-2.455,0.438-4.973,0.624-7.369,1.272c-3.7,1.001-7.293,2.403-10.986,3.442
			c-2.146,0.603-3.307,1.885-3.839,3.939c-0.692,2.662,0.029,4.046,2.523,5.088c0.633,0.264,1.093,0.939,1.671,1.377
			c0.283,0.216,0.64,0.392,0.985,0.443c0.524,0.072,1.068,0.061,1.593,0.01c0.43-0.042,0.843-0.2,1.264-0.303
			c-0.122-0.398-0.267-0.793-0.351-1.197c-0.114-0.566-0.459-1.354-0.216-1.673c1.001-1.315,2.189-2.485,3.315-3.707
			c0.054-0.06,0.17-0.069,0.259-0.094c3.659-1.104,7.262-2.465,10.989-3.248c5.708-1.203,11.49-2.103,17.269-2.937
			c4.902-0.708,9.847-1.137,14.774-1.688c1.612-1.371,3.355-0.674,5.167-0.523c2.825,0.237,5.653-0.364,8.541-0.151
			c3.25,0.24,6.55-0.321,9.821-0.234c5.487,0.151,10.987,0.362,16.45,0.871c4.649,0.434,9.264,1.272,13.627,3.103
			c1.31,0.553,1.638,1.594,0.588,2.58c-0.825,0.779-1.82,1.435-2.846,1.929c-1.285,0.615-2.717,0.914-4.01,1.519
			c-3.479,1.62-6.834,3.516-10.382,4.958c-5.165,2.101-10.437,3.93-15.683,5.826c-2.975,1.074-5.979,2.068-8.982,3.068
			c-2.675,0.894-5.356,1.771-8.054,2.594c-2.339,0.715-4.7,1.354-7.05,2.02c-2.226,0.63-4.525,1.06-6.658,1.903
			c-4.254,1.685-8.623,2.9-13.092,3.8c-0.419,0.081-1.162-0.1-1.321-0.395c-0.173-0.317,0.059-0.975,0.295-1.373
			c0.733-1.232,1.474-2.474,2.352-3.604c3.558-4.584,6.041-9.75,8.323-15.038c0.565-1.309-0.11-2.281-1.536-2.061
			c-0.611,0.099-1.177,0.497-1.771,0.727c-1.364,0.525-2.599,2.018-3.217,3.286c-1.382,2.846-2.783,5.702-4.441,8.388
			c-2.075,3.37-4.358,6.616-6.674,9.828c-0.851,1.184-1.994,2.071-3.608,2.385c-1.698,0.329-3.311,1.095-4.969,1.642
			c-1.084,0.358-2.184,0.672-3.286,0.98c-0.655,0.182-1.343,0.26-1.997,0.461c-2.022,0.623-4.046,1.25-6.05,1.937
			c-1,0.34-1.928,0.912-2.941,1.192c-1.935,0.536-3.914,0.902-5.856,1.412c-1.74,0.45-3.309,1.263-4.912,2.096
			c-1.605,0.831-2.876,1.678-4.055,3.083c-1.343,1.6-0.938,3.135-0.571,4.688c0.373,1.596,1.716,2.323,3.295,2.591
			c3.426,0.586,6.854,0.958,10.348,0.669c1.293-0.108,2.62,0.195,3.929,0.31c0.07,0.154,0.144,0.311,0.215,0.459
			c-0.584,0.651-1.176,1.297-1.755,1.958c-1.365,1.549-2.66,3.168-4.107,4.641c-1.083,1.1-2.231,2.062-3.949,2.357
			c-2.489,0.428-4.904,1.272-7.352,1.935c-0.355,0.098-0.726,0.276-1.078,0.254c-3.705-0.215-6.746,2.068-10.247,2.726
			c-2.592,0.484-5.035,1.735-7.561,2.599c-4.096,1.402-8.17,2.899-12.328,4.096c-3.688,1.066-6.783,3.51-10.563,4.305
			c-0.256,0.054-0.486,0.258-0.718,0.409c-0.495,0.327-0.94,0.772-1.485,0.982c-3.844,1.528-7.703,3.007-11.559,4.503
			c-0.129,0.048-0.243,0.135-0.365,0.205c-3.108,1.803-6.281,3.51-9.296,5.454c-1.398,0.9-2.57,2.214-3.693,3.469
			c-0.654,0.731-1.205,1.665-1.462,2.604c-0.355,1.281-0.393,2.65-0.554,3.987c-0.15,1.238,0.359,1.677,1.582,1.462
			c0.487-0.087,1.116-0.23,1.476-0.013c2.188,1.337,4.454,0.797,6.752,0.524c2.061-0.247,4.197-0.616,6.214-0.33
			c3.656,0.517,7.202-0.087,10.753-0.546c3.763-0.482,7.479-1.328,11.227-1.942c3.052-0.496,6.121-0.876,9.179-1.321
			c0.72-0.109,1.427-0.319,2.145-0.405c1.79-0.208,3.608-0.246,5.371-0.593c2.298-0.453,4.541-1.2,6.833-1.705
			c4.017-0.883,8.066-1.626,12.078-2.53c4.645-1.049,9.232-2.406,13.913-3.251c3.549-0.633,6.58-2.752,10.275-2.989
			c2.697-0.175,5.382-0.933,8.019-1.637c5.004-1.341,9.98-2.787,14.944-4.268c4.128-1.233,8.26-2.467,12.32-3.892
			c5.38-1.891,10.691-3.976,16.04-5.954c0.818-0.302,1.685-0.46,2.534-0.683c0.084,0.148,0.172,0.298,0.258,0.448
			c-0.454,0.48-0.867,1.011-1.37,1.428c-1.402,1.173-2.886,2.252-4.247,3.462c-1.819,1.618-3.426,3.499-5.37,4.934
			c-1.733,1.289-2.948,2.746-3.222,4.857c-0.125,0.959-0.032,2.316,1.168,2.315c1.612-0.001,3.495-0.141,4.79-0.961
			c3.193-2.027,6.128-4.463,9.145-6.762c1.106-0.838,2.042-1.952,3.24-2.593c2.503-1.335,5.114-2.478,7.713-3.625
			c2.609-1.154,5.235-2.288,7.901-3.311c1.932-0.746,3.935-1.297,5.908-1.931c0.085-0.03,0.182-0.042,0.272-0.043
			c1.709-0.008,3.421,0.052,5.124-0.044c1.652-0.091,3.352-0.138,4.926-0.581c1.36-0.385,2.543-0.181,3.188,1.174
			c-1.977,1.928-5.153,2.02-6.819,4.429c-0.02,0.025-0.094,0.014-0.13,0.037c-1.308,0.829-2.838,1.449-3.864,2.542
			c-1.323,1.401-2.689,3.023-2.12,5.272c0.438,1.744,0.728,3.634,2.897,4.163c1.369,0.333,2.791,0.491,4.134,0.901
			c3.44,1.055,6.624-0.362,9.822-1.072c3.053-0.681,6.002-1.874,8.955-2.949c2.519-0.926,5.001-1.967,7.466-3.026
			c2.857-1.223,5.145-3.374,7.801-4.951c3.396-2.009,6.889-1.304,10.38-1.532c0.171-0.01,0.357,0.214,0.61,0.378
			c-0.212,0.296-0.319,0.589-0.528,0.714c-2.217,1.37-3.407,3.584-4.725,5.694c-1.241,1.991-1.146,4.15-0.38,6.155
			c0.811,2.117,2.926,2.812,4.94,2.708c2.804-0.142,5.695-0.411,8.348-1.258c5.496-1.756,10.358-4.898,15.213-7.965
			C268.051,102.646,268.431,102.033,268.565,101.5z M96.588,71.783c-1.589,0.639-3.119,0.077-4.586-0.501
			c-0.723-0.288-0.542-1.105,0.372-1.532c1.045-0.481,2.106-0.976,3.211-1.289c5.115-1.455,10.243-2.844,15.372-4.254
			c0.269-0.074,0.546-0.101,1.042-0.192c0.233,0.134,0.793,0.275,0.934,0.596c0.142,0.325-0.007,0.917-0.244,1.245
			c-0.969,1.348-2.246,2.529-2.984,3.985c-0.983,1.944-2.152,1.639-3.973,1.404C102.719,70.854,99.58,70.58,96.588,71.783z
			 M170.84,82.203c-0.642,1.012-1.244,2.086-2.073,2.935c-0.711,0.725-1.647,1.339-2.599,1.699
			c-4.051,1.524-7.714,3.932-12.078,4.818c-2.614,0.527-5.002,2.11-7.545,3.08c-3.316,1.264-6.681,2.39-10.018,3.596
			c-0.558,0.206-1.049,0.593-1.608,0.777c-1.791,0.593-3.601,1.123-5.398,1.69c-2.109,0.666-4.21,1.361-6.325,2.008
			c-1.268,0.389-2.551,0.723-3.835,1.057c-2.451,0.632-5.008,0.99-7.328,1.94c-2.221,0.908-4.499,0.902-6.757,1.277
			c-0.365,0.062-0.76,0.028-1.096,0.156c-3.977,1.528-8.221,2.01-12.309,3.094c-3.883,1.034-7.818,1.857-11.739,2.751
			c-2.303,0.522-4.626,0.972-6.926,1.501c-3.507,0.804-6.987,1.719-10.508,2.445c-1.888,0.391-3.842,0.469-5.764,0.709
			c-3.105,0.388-6.221,0.731-9.311,1.207c-3.111,0.483-6.189,1.18-9.301,1.643c-2.274,0.336-4.752,1.048-6.838,0.483
			c-2.22-0.6-4.242-0.303-6.359-0.301c-0.026-0.005-0.052-0.071-0.171-0.248c0.771-0.695,1.519-1.478,2.369-2.117
			c2.948-2.214,5.887-4.459,8.924-6.55c2.663-1.834,5.368-3.632,8.204-5.165c2.649-1.436,5.167-3.143,8.25-3.773
			c2.411-0.49,4.722-1.498,7.055-2.331c0.59-0.212,1.187-0.557,1.649-0.981c1.198-1.105,2.538-1.556,4.176-1.396
			c0.506,0.055,1.292-0.25,1.55-0.651c0.521-0.807,1.155-0.852,1.913-0.68c1.301,0.307,2.303-0.093,3.274-1.008
			c1.119-1.059,2.525-1.354,4.112-1.461c1.652-0.105,3.271-0.787,4.891-1.264c0.292-0.084,0.521-0.549,0.776-0.549
			c2.207-0.001,4.042-1.375,6.172-1.621c0.292-0.031,0.6,0.108,0.932,0.174c-0.035,0.224-0.009,0.39-0.083,0.476
			c-1.592,1.702-2.618,3.982-5.198,4.704c-0.633,0.172-1.233,1.231-1.417,1.986c-0.114,0.473,0.488,1.223,0.936,1.684
			c0.207,0.215,0.938,0.206,1.225,0.005c1.804-1.26,3.552-2.6,5.316-3.915c0.326-0.246,0.629-0.707,0.972-0.731
			c2.307-0.182,3.495-1.91,4.52-3.548c1.212-1.937,3.118-2.065,4.946-2.552c0.911-0.246,1.824-0.497,2.735-0.735
			c1.381-0.368,2.748-0.925,4.148-1.039c3.104-0.26,6.153-1.362,9.329-0.676c0.309,0.066,0.784-0.025,1.003-0.237
			c1.254-1.205,2.588-0.907,4.001-0.38c0.473,0.182,1.14,0.345,1.53,0.146c1.638-0.837,3.222-1.304,5.014-0.431
			c0.302,0.145,0.837-0.179,1.264-0.292c1.153-0.308,2.291-0.803,3.458-0.893c3.356-0.259,6.719-0.392,10.08-0.497
			c1.65-0.05,3.302,0.114,4.952,0.106c0.699,0,1.401-0.191,2.101-0.296c0.018-0.23,0.035-0.458,0.057-0.685
			c-1.379-0.511-2.728-1.338-4.143-1.474c-3.12-0.305-6.279-0.404-9.416-0.319c-2.527,0.065-5.038,0.527-7.559,0.812
			c-0.369,0.04-0.754,0.163-1.102,0.093c-3.111-0.648-6.131-0.111-9.149,0.605c-0.756,0.178-1.57,0.1-2.349,0.19
			c-1.906,0.231-3.805,0.505-5.709,0.734c-1.834,0.222-3.665,0.442-5.504,0.599c-0.504,0.041-1.032-0.148-1.739-0.268
			c0.336-0.472,0.497-0.744,0.699-0.973c1.496-1.673,2.94-3.395,4.511-4.984c1.541-1.566,3.604-2.046,5.703-2.288
			c2.338-0.271,4.766-0.185,7.001-0.813c1.622-0.454,3.035-0.304,4.624-0.301c5.5,0.017,10.996-0.625,16.502-0.771
			c3.599-0.093,7.211,0.258,10.817,0.374c1.85,0.059,3.706-0.051,5.546,0.075c1.971,0.138,3.964,0.314,5.885,0.743
			c3.059,0.681,6.078,1.557,9.097,2.402c0.578,0.159,1.083,0.561,1.916,1.02c-0.624,0.362-0.902,0.642-1.212,0.686
			C172.781,79.73,171.719,80.815,170.84,82.203z M220.519,99.88c-2.666,0.921-5.225,2.116-8.138,2.141
			c-0.734,0.006-1.453,0.563-2.193,0.828c-2.293,0.825-4.555,1.785-6.912,2.37c-0.96,0.238-2.195-0.191-3.177-0.612
			c-1.022-0.436-0.606-1.314,0.055-1.75c1.341-0.878,2.781-1.607,4.183-2.389c0.2-0.109,0.486-0.114,0.633-0.266
			c2.254-2.297,5.578-2.553,8.156-4.25c0.56-0.366,1.512-0.244,2.271-0.193c2.438,0.161,4.873,0.463,7.315,0.55
			c0.709,0.027,1.521-0.359,2.139-0.774c1.221-0.814,2.332-0.859,3.684,0.152C226.207,97.89,223.385,98.893,220.519,99.88z
			 M225.518,91.786c-0.197-0.056-0.402-0.989-0.24-1.145c1.002-0.988,5.449-0.343,6.663,1.194
			C229.631,91.908,227.588,92.428,225.518,91.786z M254.864,103.988c-2.703,1.3-5.4,2.935-8.628,2.451
			c-0.389-0.059-0.941-0.364-1.041-0.675c-0.098-0.312,0.173-0.885,0.459-1.15c1.453-1.354,2.925-2.691,4.475-3.93
			c0.59-0.471,1.435-0.614,2.113-0.99c2.262-1.266,4.525-2.533,6.736-3.887c0.806-0.491,1.237-1.237,1.045-2.357
			c-0.298-1.719,1.464-4.2,3.142-4.729c0.565-0.176,1.096-0.493,1.67-0.62c0.531-0.121,1.103-0.067,1.921-0.098
			c1.868-0.685,2.829,1.031,4.019,2.174c0.275,0.267,0.334,0.931,0.257,1.372c-0.661,3.735-3.47,5.535-6.503,7.16
			C261.292,100.441,258.168,102.396,254.864,103.988z"/>
		<path fill-rule="evenodd" clip-rule="evenodd" fill="#FFFFFF" d="M290.057,100.078c1.186-0.622,2.434-1.197,3.718-1.549
			c5.665-1.556,11.349-3.049,17.041-4.509c4.257-1.097,8.503-2.289,12.822-3.089c3.706-0.687,7.51-0.882,11.272-1.29
			c1.432-0.155,2.705-1.034,2.883-2.021c0.227-1.226-0.506-3.058-1.738-3.514c-1.215-0.457-2.611-0.804-3.884-0.681
			c-3.26,0.312-6.496,0.879-9.731,1.406c-1.456,0.236-2.91,0.544-4.32,0.951c-4.079,1.178-8.142,2.438-12.214,3.637
			c-1.123,0.329-2.275,0.564-3.414,0.843c-0.052-0.105-0.102-0.209-0.156-0.315c0.282-0.404,0.491-0.906,0.865-1.195
			c2.205-1.694,3.76-4.044,6.094-5.649c1.882-1.296,3.313-3.227,5.05-4.764c2.326-2.052,4.809-3.936,7.123-6.001
			c2.764-2.46,5.452-5.002,8.112-7.576c1.866-1.795,3.644-3.678,5.42-5.562c1.165-1.232,1.788-2.679,1.534-4.434
			c-0.217-1.499-1.521-2.314-2.831-1.593c-0.876,0.484-1.689,1.136-2.43,1.824c-1.975,1.837-3.342,4.255-5.656,5.799
			c-1.062,0.712-2.221,1.624-2.733,2.727c-1.229,2.641-3.806,3.86-5.652,5.828c-1.743,1.86-4.022,3.208-6.005,4.851
			c-0.843,0.697-1.509,1.596-2.277,2.374c-0.353,0.356-0.773,0.646-1.174,0.946c-0.51,0.388-1.093,0.703-1.543,1.152
			c-1.328,1.33-2.531,2.788-3.919,4.051c-1.912,1.741-3.919,3.38-5.937,5c-1.356,1.091-2.808,2.071-4.194,3.125
			c-0.768,0.587-1.443,1.313-2.256,1.826c-3.592,2.25-7.219,4.448-10.838,6.662c-0.433,0.258-0.906,0.448-1.362,0.67
			c-3.892,1.917-7.831,3.752-11.676,5.774c-2.663,1.4-2.604,1.514-2.018,4.489c0.317,1.608,0.93,1.992,2.516,1.477
			c0.695-0.228,1.338-0.623,2.016-0.912c1.469-0.62,2.106-2.213,3.997-2.622c2.253-0.484,4.319-2.002,6.369-3.243
			c1.406-0.854,2.648-1.125,4.104-0.173c0.924,0.602,1.938,1.11,2.969,1.497c5.152,1.912,10.564,2.437,15.974,2.643
			c3.757,0.137,7.518,0.28,11.315-0.413c3.188-0.583,6.548-0.19,9.832-0.339c0.971-0.043,1.919-0.466,2.887-0.716
			c-0.019-0.214-0.033-0.428-0.049-0.641c-1.827-0.506-3.633-1.265-5.502-1.469c-4.492-0.489-9.013-0.642-13.513-1.07
			c-4.23-0.405-8.446-0.96-12.66-1.51c-1.41-0.188-2.842-0.423-4.17-0.887C288.885,101.459,288.879,100.695,290.057,100.078z"/>
		<path fill-rule="evenodd" clip-rule="evenodd" fill="#FFFFFF" d="M433.977,95.713c1.245-0.215,1.729-1.282,2.167-2.659
			c0.58-1.814,1.243-3.583,1.777-5.419c0.544-1.873,0.87-3.874,1.463-5.703c1.061-3.251,2.341-6.367,3.366-9.644
			c1.619-5.179,1.973-10.656,1.387-16.262c-0.213-2.028-0.486-4.053-0.843-6.039c-0.4-2.242-0.633-4.71-1.467-6.602
			c-2.179-4.939-5.273-8.31-9.348-9.502c-0.683-0.201-1.362-0.529-2.05-0.541c-1.165-0.016-2.503-0.315-3.468,0.379
			c-1.38,1.007-2.426,2.947-3.738,4.215c-1.748,1.692-1.897,3.962-1.362,6.504c0.152,0.731,0.646,1.523,1.125,1.822
			c0.23,0.14,0.943-0.667,1.163-1.258c1.208-3.319,3.041-5.828,5.689-6.206c1.224,0.655,3.927,1.635,5.068,2.523
			c1.373,1.067,1.29,3.105,2.577,4.405c0.174,0.182,0.337,0.497,0.392,0.8c0.332,1.717,0.723,3.426,0.913,5.181
			c0.327,2.998,0.463,6.048,0.777,9.054c0.246,2.293,0.165,4.334-0.589,6.537c-1.032,3.053-1.663,6.396-2.501,9.596
			c-0.189,0.741-0.601,1.372-0.757,2.124c-0.789,3.698-1.786,7.192-3.877,9.815c-0.413,0.519-0.72,1.22-1.043,1.865
			c-1.346,2.643-1.65,2.406-3.069-0.183c-1.788-3.254-3.485-7.253-7.188-5.737c-0.252,0.105-0.552-0.033-0.828-0.007
			c-3.442,0.265-6.899,0.4-10.11,2.545c-3.285,2.2-6.759,3.743-9.453,7.658c-2.639,3.83-4.081,7.596-2.467,13.104
			c0.688,2.334,1.58,4.095,3.162,4.588c2.28,0.714,4.642,1.192,6.97,1.222c2.146,0.029,4.295-0.646,6.441-1.046
			c1.689-0.31,3.375-0.585,5.046-1.024c3.643-0.959,6.631-3.867,9.577-6.862c0.207-0.216,0.277-1.085,0.164-1.519
			c-0.326-1.242,0.066-1.774,0.806-2.029c0.811-0.279,1.687-0.319,2.43-0.802c0.369-0.238,0.794-1.378,0.685-1.852
			C432.536,96.979,432.701,95.937,433.977,95.713z M424.664,100.638c-0.043,0.024-0.978,0.84-1.01,0.884
			c-2.258,3.193-4.226,2.692-6.939,3.661c-1.55,0.555-2.749,0.78-4.292,1.387c-0.747,0.297-2.127,0.597-2.901,0.758
			c-0.024,0.101-2.123-0.103-2.147,0c-1.284-0.461-1.782-0.147-3.027-0.758c-0.928-0.459-1.071-2.737-0.486-3.86
			c0.604-1.156,0.674-2.378,1.117-3.333c1.677-3.621,5.676-5.941,8.834-7.573c3.196-1.651,7.639,0.442,10.283,4.283
			C425.981,98.825,427.243,99.287,424.664,100.638z"/>
		<path fill-rule="evenodd" clip-rule="evenodd" fill="#FFFFFF" d="M397.966,87.565c-0.353-2.696,0.305-5.298,0.41-7.993
			c0.068-1.71,0.182-3.352,0.446-5.04c0.286-1.164,0.356-2.334,0.22-3.513c-0.781,0.062-1.518,0.158-1.942,0.37
			c-0.035,0.034-0.194,0.153-0.246,0.241c-0.199,0.337-0.394,0.678-0.55,1.037c-0.267,0.611-0.475,1.221-0.656,1.862
			c-0.067,0.245-0.179,0.455-0.305,0.646c-0.224,0.999-0.454,1.995-0.604,3.008c-0.51,3.444-0.803,6.931-1.467,10.344
			c-0.489,2.564-1.403,5.048-2.168,7.556c-0.213,0.694-0.768,0.874-1.276,0.314c-1.889-2.073-4.213-3.41-6.873-4.258
			c-1.529-0.481-2.126-1.613-1.933-3.251c0.181-1.602-0.443-2.971-1.858-3.756c-1.263-0.704-2.605-1.404-4-1.713
			c-3.808-0.848-7.618-1.104-11.508-0.164c-3.568,0.857-7.226,1.337-10.847,1.957c-2.178,0.373-4.438,0.456-6.526,1.105
			c-2.345,0.729-4.657,1.753-6.762,3.02c-1.51,0.906-3.524,1.22-4.061,3.633c-0.555,2.506-0.37,4.34,1.79,5.789
			c1.3,0.87,2.738,1.528,4.114,2.276c0.354,0.191,0.724,0.355,1.321,0.65c-0.619,0.77-1.192,1.358-1.602,2.043
			c-0.528,0.869-0.922,1.81-1.367,2.726c-0.14,0.286-0.206,0.608-0.38,0.862c-0.776,1.114-0.6,2.272-0.2,3.447
			c0.142,0.432,0.382,0.836,0.476,1.274c0.276,1.196,1.307,2.06,2.51,2.241c0.887,0.14,1.75,0.45,2.616,0.738
			c1.21,0.395,2.379,0.938,3.611,1.251c3.778,0.963,7.637,0.65,11.47,0.513c3.167-0.114,6.313-0.506,9.171-1.985
			c0.615-0.317,1.263-1.082,1.391-1.738c0.198-1.05,0.079-2.199-0.096-3.27c-0.366-2.248-2.294-3.417-3.778-4.757
			c-1.057-0.947-2.724-1.203-4.084-1.838c-2.091-0.974-4.145-2.01-6.216-3.017c-0.862-0.415-1.729-0.809-2.605-1.218
			c0.188-0.544,0.335-0.955,0.495-1.446c-0.669-0.076-1.238-0.252-1.762-0.173c-2.639,0.404-5.254,0.485-7.763-0.561
			c-0.991-0.418-1.876-1.091-2.979-1.744c2.775-2.411,5.809-3.151,8.812-3.762c3.938-0.801,7.954-1.263,11.93-1.876
			c1.099-0.165,2.191-0.42,3.293-0.534c2.649-0.283,5.088,0.708,7.587,1.342c2.422,0.621,4.285,1.726,4.35,4.623
			c0.006,0.405,0.547,1.091,0.917,1.147c1.556,0.255,2.787,1.129,4.155,1.791c2.836,1.375,3.453,3.958,3.898,6.6
			c0.243,1.426,0,2.933,0.018,4.399c0,0.244,0.149,0.529,0.316,0.716c1.805,1.975,5.515,1.4,6.312-1.149
			c1.191-3.815,2.165-7.708,3.105-11.604c0.691-2.891,1.269-5.81,1.77-8.737C398.024,87.851,397.985,87.716,397.966,87.565z
			 M344.17,106.408c0.111-0.2,0.261-0.384,0.339-0.597c1.224-3.248,1.838-3.646,5.142-2.536c2.528,0.849,4.977,1.965,7.425,3.053
			c1.808,0.806,3.559,1.741,5.326,2.651c0.369,0.192,0.672,0.526,1.33,1.059c-0.813,0.417-1.302,0.756-1.844,0.932
			c-2.696,0.892-5.418-0.073-8.116-0.117c-2.887-0.047-5.78-1.028-8.619-1.793C343.423,108.595,343.281,107.924,344.17,106.408z"/>
		<path fill-rule="evenodd" clip-rule="evenodd" fill="#FFFFFF" d="M398.074,63.61c0.003,0,0.003,0,0.003,0
			c0.408,0.189,0.771,0.504,1.122,0.793c1.025,0.846,1.975,1.799,3.077,2.522c0.723,0.476,1.277,0.291,1.184-0.858
			c-0.13-1.6-0.949-2.746-1.949-3.886c-0.234-0.266-0.454-0.545-0.685-0.815c-0.534-0.227-1.071-0.423-1.647-0.389
			c-0.803,0.048-2.095-0.242-2.708,0.389c-0.052,0.052,0.337,1.051,0.521,1.608C397.401,63.158,397.777,63.365,398.074,63.61z"/>
		<path fill-rule="evenodd" clip-rule="evenodd" fill="#FFFFFF" d="M531.234,124.903c-0.841-0.307-1.695-0.548-2.543-0.832
			c-1.084-0.363-2.139-0.779-3.16-1.259c-1.318-0.35-2.64-0.701-3.959-1.043c-3.666-0.949-7.339-1.86-10.996-2.824
			c-1.25-0.327-2.458-0.822-3.71-1.145c-2.81-0.721-5.649-1.324-8.446-2.089c-3.38-0.922-6.724-1.973-10.102-2.94
			c-1.938-0.558-3.916-1.009-5.848-1.595c-1.99-0.597-3.96-1.261-5.911-1.958c-2.43-0.867-4.843-1.785-7.25-2.715
			c-0.248-0.096-0.405-0.424-0.802-0.858c0.676-0.159,1.025-0.252,1.382-0.317c2.677-0.473,5.377-0.858,8.021-1.453
			c1.426-0.321,2.753-1.051,4.151-1.507c1.971-0.637,4.032-1.026,5.928-1.841c1.146-0.491,2.369-1.397,2.956-2.457
			c0.892-1.589-0.535-4.479-2.467-5.04c-2.79-0.8-5.652-1.494-8.533-1.797c-2.351-0.247-4.784,0.019-7.155,0.293
			c-2.316,0.264-4.657,0.635-6.87,1.351c-1.488,0.479-2.728,1.676-4.129,2.478c-1.832,1.049-3.251,2.306-3.521,4.621
			c-0.063,0.556-0.987,1.376-1.589,1.451c-2.976,0.357-5.982,0.438-8.969,0.754c-1.786,0.191-3.533,0.655-5.298,0.958
			c-0.902,0.153-1.824,0.379-2.715,0.317c-1.561-0.122-3.1-0.445-4.645-0.676c-1.043-0.157-1.734,0.469-1.784,1.319
			c-0.057,0.979,0.276,2,0.535,2.971c0.082,0.298,0.439,0.646,0.734,0.732c1.064,0.311,2.146,0.649,3.24,0.737
			c2.21,0.18,4.365-0.336,6.554-0.656c4.425-0.647,8.946-0.716,13.427-0.99c0.488-0.028,1.055,0.068,1.465,0.307
			c1.682,0.973,3.308,2.046,4.985,3.032c1.823,1.076,3.573,2.441,5.547,3.079c7.993,2.561,16.038,4.983,24.105,7.276
			c0.722,0.204,1.446,0.389,2.173,0.582c1.658,0.145,3.312,0.333,4.959,0.601c3.152,0.511,6.994-0.042,9.894,1.391
			c3.08,1.52,7.539,1.766,10.962,2.029c1.194,0.092,8.595,1.335,9.319,0.409c0.11-0.144,0.224-0.289,0.335-0.433
			C531.328,125.027,531.137,124.867,531.234,124.903z M466.199,99.958c0.278-0.395,0.47-0.976,0.84-1.141
			c1.052-0.467,2.15-0.842,3.268-1.106c1.384-0.336,2.804-0.576,4.218-0.751c1.41-0.175,2.841-0.196,4.254-0.327
			c1.284-0.119,2.56-0.289,3.946-0.45c0.317,1.144-0.343,2.341-1.694,2.561c-3.238,0.513-6.5,0.897-9.747,1.312
			c-1.239,0.161-2.482,0.326-3.73,0.371C467.112,100.441,466.655,100.122,466.199,99.958z"/>
	</g>
	<g>
		<path fill="#FFFFFF" d="M291.047,123.043h5.322c6.207,0,10.335,3.872,10.335,9.68c0,5.807-4.1,9.68-10.335,9.68h-5.322V123.043z
			 M296.171,139.755c5.039,0,7.401-2.903,7.401-7.032c0-4.128-2.362-7.032-7.401-7.032h-2.106v14.064H296.171z"/>
		<path fill="#FFFFFF" d="M309.575,132.723c0-5.779,4.441-9.936,9.993-9.936c5.522,0,9.964,4.156,9.964,9.936
			s-4.441,9.936-9.964,9.936C314.017,142.659,309.575,138.502,309.575,132.723z M326.458,132.723c0-4.128-2.847-7.231-6.89-7.231
			c-4.042,0-6.917,3.103-6.917,7.231c0,4.128,2.875,7.231,6.917,7.231C323.611,139.954,326.458,136.852,326.458,132.723z"/>
		<path fill="#FFFFFF" d="M330.811,123.043h3.159l3.416,10.306c0.37,1.082,0.741,2.761,0.741,2.761s0.483-1.651,0.938-2.761
			l4.44-10.505h0.371l4.471,10.505c0.454,1.082,0.91,2.761,0.91,2.761s0.398-1.679,0.769-2.761l3.417-10.306h2.933l-6.691,19.559
			h-0.37l-4.812-11.53c-0.398-0.94-0.797-2.363-0.797-2.363s-0.454,1.423-0.854,2.363l-4.924,11.53h-0.371L330.811,123.043z"/>
		<path fill="#FFFFFF" d="M363.914,131.101c-0.769-0.825-1.822-2.164-1.822-2.164s0.199,1.595,0.199,2.791v10.676h-2.789v-19.559
			h0.397l10.677,11.474c0.739,0.797,1.793,2.164,1.793,2.164s-0.199-1.708-0.199-2.791v-10.647h2.79v19.559h-0.37L363.914,131.101z"
			/>
		<path fill="#FFFFFF" d="M383.952,125.691H378.2v-2.647h14.492v2.647h-5.751v16.712h-2.989V125.691z"/>
		<path fill="#FFFFFF" d="M393.914,132.723c0-5.779,4.441-9.936,9.992-9.936c5.523,0,9.965,4.156,9.965,9.936
			s-4.441,9.936-9.965,9.936C398.355,142.659,393.914,138.502,393.914,132.723z M410.797,132.723c0-4.128-2.848-7.231-6.891-7.231
			c-4.042,0-6.918,3.103-6.918,7.231c0,4.128,2.876,7.231,6.918,7.231C407.949,139.954,410.797,136.852,410.797,132.723z"/>
		<path fill="#FFFFFF" d="M415.147,123.043h3.16l3.417,10.306c0.37,1.082,0.74,2.761,0.74,2.761s0.483-1.651,0.938-2.761
			l4.441-10.505h0.371l4.469,10.505c0.455,1.082,0.911,2.761,0.911,2.761s0.398-1.679,0.77-2.761l3.415-10.306h2.933l-6.69,19.559
			h-0.37l-4.812-11.53c-0.397-0.94-0.797-2.363-0.797-2.363s-0.455,1.423-0.854,2.363l-4.926,11.53h-0.369L415.147,123.043z"/>
		<path fill="#FFFFFF" d="M448.253,131.101c-0.77-0.825-1.822-2.164-1.822-2.164s0.199,1.595,0.199,2.791v10.676h-2.791v-19.559
			h0.399l10.675,11.474c0.741,0.797,1.795,2.164,1.795,2.164s-0.199-1.708-0.199-2.791v-10.647h2.789v19.559h-0.369L448.253,131.101
			z"/>
	</g>
</g>
</svg>
