<?xml version="1.0" encoding="utf-8"?>
<!-- Generator: Adobe Illustrator 16.0.4, SVG Export Plug-In . SVG Version: 6.00 Build 0)  -->
<!DOCTYPE svg PUBLIC "-//W3C//DTD SVG 1.1//EN" "http://www.w3.org/Graphics/SVG/1.1/DTD/svg11.dtd">
<svg version="1.1" id="Layer_1" xmlns="http://www.w3.org/2000/svg" xmlns:xlink="http://www.w3.org/1999/xlink" x="0px" y="0px"
	 width="546px" height="163px" viewBox="0 0 546 163" enable-background="new 0 0 546 163" xml:space="preserve">
<g>
	<g>
		<path fill="#FFFFFF" d="M375.202,133.534h7.127c3.664,0,5.54,2.222,5.54,4.935c0,1.875-0.952,3.202-2.655,3.78
			c2.626,0.605,4.011,2.48,4.011,4.992c0,3.375-2.25,5.914-6.376,5.914h-7.646V133.534z M382.185,141.18
			c1.817,0,2.684-1.01,2.684-2.481c0-1.472-0.837-2.481-2.741-2.481h-3.866v4.962H382.185z M382.675,150.471
			c2.366,0,3.491-1.385,3.491-3.346c0-1.963-1.212-3.348-3.635-3.348h-4.271v6.693H382.675z"/>
		<path fill="#FFFFFF" d="M406.368,153.154h-3.52l-3.521-5.164c-0.548,0.057-1.097,0.115-1.645,0.115h-1.847v5.049h-3.059v-19.621
			h4.905c5.425,0,8.454,2.828,8.454,7.33c0,3.029-1.356,5.107-3.924,6.232L406.368,153.154z M397.568,145.48
			c3.895,0,5.453-1.703,5.453-4.617c0-2.944-1.616-4.646-5.453-4.646h-1.731v9.263H397.568z"/>
		<path fill="#FFFFFF" d="M409.345,143.344c0-5.857,4.501-10.07,10.128-10.07c5.598,0,10.099,4.213,10.099,10.07
			c0,5.857-4.501,10.07-10.099,10.07C413.846,153.414,409.345,149.201,409.345,143.344z M426.455,143.344
			c0-4.183-2.886-7.329-6.982-7.329c-4.098,0-7.012,3.146-7.012,7.329c0,4.184,2.914,7.33,7.012,7.33
			C423.569,150.674,426.455,147.527,426.455,143.344z"/>
		<path fill="#FFFFFF" d="M432.521,143.344c0-5.857,4.501-10.07,10.128-10.07c5.598,0,10.099,4.213,10.099,10.07
			c0,5.857-4.501,10.07-10.099,10.07C437.021,153.414,432.521,149.201,432.521,143.344z M449.631,143.344
			c0-4.183-2.886-7.329-6.982-7.329c-4.098,0-7.012,3.146-7.012,7.329c0,4.184,2.914,7.33,7.012,7.33
			C446.745,150.674,449.631,147.527,449.631,143.344z"/>
		<path fill="#FFFFFF" d="M460.919,141.844l6.348-8.31h3.463l-6.954,9.175l7.733,10.445h-3.693l-6.06-8.193l-2.106,2.566v5.627
			h-3.059v-19.621h3.059v8.08c0,0.895-0.115,2.078-0.231,2.885C459.852,143.604,460.429,142.508,460.919,141.844z"/>
		<path fill="#FFFFFF" d="M472.782,149.346l2.511-1.385c0.924,1.529,2.106,2.742,4.501,2.742c1.991,0,3.405-1.068,3.405-2.684
			c0-1.703-1.154-2.453-3.289-3.406l-1.299-0.576c-2.856-1.27-4.588-2.713-4.588-5.743c0-2.914,2.251-4.991,5.511-4.991
			c2.598,0,4.357,0.98,5.54,3.087l-2.395,1.472c-0.75-1.298-1.616-1.904-3.146-1.904c-1.558,0-2.539,0.952-2.539,2.279
			c0,1.472,0.837,2.136,2.828,3.001l1.27,0.576c3.347,1.473,5.136,3.029,5.136,6.176c0,3.434-2.684,5.424-6.377,5.424
			C476.13,153.414,473.879,151.568,472.782,149.346z"/>
		<path fill="#FFFFFF" d="M490.041,133.534h3.029v19.621h-3.029V133.534z"/>
		<path fill="#FFFFFF" d="M497.891,133.534h5.396c6.29,0,10.475,3.924,10.475,9.81c0,5.887-4.155,9.811-10.475,9.811h-5.396V133.534
			z M503.084,150.471c5.107,0,7.502-2.943,7.502-7.127c0-4.183-2.395-7.126-7.502-7.126h-2.135v14.253H503.084z"/>
		<path fill="#FFFFFF" d="M517.573,133.534h12.465v2.684h-9.406v7.617h8.339v2.627h-8.339v4.01h9.811v2.684h-12.869V133.534z"/>
	</g>
	<g>
		<path fill="#FFFFFF" d="M351.096,140.359h3.834c2.253,0,3.229,1.277,3.229,2.893c0,1.207-0.462,2.131-1.491,2.484
			c1.509,0.355,2.503,1.598,2.503,3.23c0,1.934-1.118,3.461-3.709,3.461h-4.366V140.359z M355.178,145.506
			c1.703,0,2.254-0.957,2.254-2.254c0-1.277-0.657-2.254-2.573-2.254h-3.034v4.508H355.178z M355.373,151.789
			c2.254,0,3.07-1.225,3.07-2.822c0-1.615-0.923-2.822-3.088-2.822h-3.531v5.645H355.373z"/>
		<path fill="#FFFFFF" d="M364.952,148.666l-4.561-8.307h0.816l3.851,6.992c0.16,0.285,0.284,0.729,0.284,0.729
			s0.159-0.443,0.319-0.729l3.833-6.992h0.763l-4.561,8.324v3.744h-0.745V148.666z"/>
	</g>
	<rect x="134.559" y="24.467" fill="#FFFFFF" width="16.1" height="15.001"/>
	<path fill="#FFFFFF" d="M520.193,121.5v-12.388h7.102V72.4c0-16.588-9.758-27.686-24.516-27.686
		c-6.708,0-12.196,2.927-16.222,7.683v-6.098H471.19v62.813h7.142V121.5h-41.21v-12.388h7.233l19.637-62.813h-17.075L435.94,90.207
		l-11.466-43.908h-16.1L396.91,90.207l-10.977-43.908h-17.076l19.516,62.813h7.495V121.5h-60.642v-10.935
		c17.259-0.212,31.312-14.16,31.312-32.799c0-18.783-14.27-33.053-31.711-33.053s-31.59,14.27-31.59,33.053
		c0,18.204,13.291,31.94,29.988,32.769V121.5h-63.466v-10.989c15.667-0.909,25.55-12.41,25.55-27.622v-5.122h-16.1v5.977
		c0,5.732-3.537,11.586-11.465,11.586c-8.05,0-11.587-5.854-11.587-11.586V61.425l38.542-0.002V46.299l-38.542-0.008V18.373h-16.1
		v27.918h-6.605v15.134h6.605v21.464c0,15.856,10.854,27.687,27.687,27.687c0.005,0,0.01,0,0.015,0V121.5h-73.464v-11.17
		c6.549-0.598,12.199-3.405,16.613-7.926v6.708h15.367V18.368h-16.099v33.907c-4.879-4.634-11.221-7.318-18.539-7.318
		c-16.344,0-29.882,14.148-29.882,32.81c0,18.539,13.538,32.687,29.882,32.687c0.221,0,0.438-0.011,0.658-0.016V121.5h-48.817
		v-12.388h7.179V46.299h-16.1v62.813h6.92V121.5h-29.038v-12.388h6.992V24.467H95.407L77.721,87.89L60.036,24.467H36.13v84.645
		h6.149V121.5h-7.667v7h495.968v-7H520.193z M487.289,109.112V72.4c0-7.075,5.002-12.441,12.197-12.441
		c10.611,0,11.709,8.782,11.709,12.441v36.712h6.998V121.5h-37.861v-12.388H487.289z M416.426,67.521l11.342,41.591h7.354V121.5
		h-37.254v-12.388h7.214L416.426,67.521z M319.338,77.888c0-10.854,6.953-18.417,15.49-18.417c8.538,0,15.49,7.562,15.49,18.417
		c0,10.611-6.952,17.929-15.49,17.929C326.291,95.817,319.338,88.499,319.338,77.888z M177.978,77.888
		c0-10.245,7.196-18.051,16.1-18.051c8.903,0,16.1,8.049,16.1,18.051c0,9.757-7.197,17.685-16.1,17.685
		C185.174,95.573,177.978,87.89,177.978,77.888z M103.579,47.031v62.081h6.863V121.5H78.36v-12.388h8.021L103.579,47.031z
		 M51.986,47.031l17.197,62.081h7.177V121.5H44.279v-12.388h7.707V47.031z"/>
</g>
</svg>
