<?xml version="1.0" encoding="utf-8"?>
<!-- Generator: Adobe Illustrator 16.0.4, SVG Export Plug-In . SVG Version: 6.00 Build 0)  -->
<!DOCTYPE svg PUBLIC "-//W3C//DTD SVG 1.1//EN" "http://www.w3.org/Graphics/SVG/1.1/DTD/svg11.dtd">
<svg version="1.1" id="Layer_1" xmlns="http://www.w3.org/2000/svg" xmlns:xlink="http://www.w3.org/1999/xlink" x="0px" y="0px"
	 width="792px" height="266.456px" viewBox="0 0 792 266.456" enable-background="new 0 0 792 266.456" xml:space="preserve">
<polygon fill="#FFFFFF" points="45.264,144.38 45.264,212.598 34.176,212.598 34.176,144.38 4.174,144.38 4.174,134.348 
	75.164,134.348 75.164,144.38 "/>
<path fill="#FFFFFF" d="M126.28,205.67c-5.917,5.462-13.838,8.196-23.766,8.196c-9.935,0-17.819-2.734-23.667-8.196
	c-5.845-5.455-8.773-12.535-8.773-21.229c0-8.697,2.964-15.802,8.89-21.302c5.926-5.494,13.849-8.253,23.769-8.253
	c9.933,0,17.826,2.759,23.662,8.253c5.843,5.5,8.771,12.605,8.771,21.302C135.166,193.135,132.215,200.215,126.28,205.67
	 M118.493,170.072c-3.733-3.588-9.025-5.364-15.873-5.364c-6.768,0-12.021,1.803-15.754,5.415c-3.728,3.613-5.6,8.392-5.6,14.318
	c0,5.846,1.882,10.574,5.65,14.197c3.781,3.604,9.018,5.421,15.704,5.421c6.708,0,11.944-1.817,15.754-5.421
	c3.813-3.623,5.705-8.352,5.705-14.197C124.079,178.438,122.22,173.65,118.493,170.072"/>
<polygon fill="#FFFFFF" points="204.995,212.598 196.228,212.598 183.762,187.907 172.231,212.598 163.552,212.598 135.053,156.267 
	147.521,156.267 167.714,197.125 177.511,175.433 167.714,156.267 180.298,156.267 200.374,197.125 218.962,156.267 
	231.083,156.267 "/>
<path fill="#FFFFFF" d="M280.361,212.598v-36.123c0-7.854-5.081-11.767-15.243-11.767c-5.768,0-10.245,1.516-13.442,4.56
	c-3.186,3.033-4.791,7.016-4.791,11.934v31.396h-11.07v-56.546h11.07v3.809c4.854-3.302,10.901-4.975,18.135-4.975
	c7.373,0,13.45,1.617,18.224,4.846c5.468,3.694,8.194,8.935,8.194,15.702v37.165H280.361z"/>
<path fill="#FFFFFF" d="M344.42,212.598v-37.509c0-8.154-5.074-12.231-15.24-12.231c-5.777,0-10.24,1.579-13.434,4.721
	c-3.206,3.169-4.81,7.319-4.81,12.481v32.538h-11.064v-78.25h11.064v23.535c4.847-3.372,10.902-5.069,18.125-5.069
	c7.396,0,13.47,1.697,18.238,5.069c5.46,3.784,8.19,9.156,8.19,16.167v38.549H344.42z"/>
<path fill="#FFFFFF" d="M418.981,205.67c-5.923,5.462-13.852,8.196-23.79,8.196c-9.909,0-17.805-2.734-23.648-8.196
	c-5.851-5.455-8.777-12.535-8.777-21.229c0-8.697,2.966-15.802,8.893-21.302c5.915-5.494,13.849-8.253,23.77-8.253
	c9.932,0,17.81,2.759,23.671,8.253c5.841,5.5,8.759,12.605,8.759,21.302C427.859,193.135,424.904,200.215,418.981,205.67
	 M411.199,170.072c-3.75-3.588-9.031-5.364-15.881-5.364c-6.781,0-12.029,1.803-15.753,5.415c-3.741,3.613-5.603,8.392-5.603,14.318
	c0,5.846,1.875,10.574,5.655,14.197c3.766,3.604,8.999,5.421,15.701,5.421c6.691,0,11.95-1.817,15.757-5.421
	c3.802-3.623,5.709-8.352,5.709-14.197C416.784,178.438,414.921,173.65,411.199,170.072"/>
<path fill="#FFFFFF" d="M513.279,212.598v-36.123c0-4.156-0.986-7.159-2.95-9.003c-1.963-1.854-5.136-2.764-9.523-2.764
	c-4.931,0-8.754,1.184-11.477,3.573c-2.753,2.386-4.104,5.58-4.104,9.578v34.739h-11.083v-36.123c0-4.156-1.013-7.159-3.052-9.003
	c-2.038-1.854-5.286-2.764-9.749-2.764c-4.934,0-8.778,1.651-11.545,4.954c-2.535,3.003-3.813,6.852-3.813,11.54v31.396h-11.078
	v-56.546h11.078v3.457c4.55-3.076,10.053-4.624,16.505-4.624c7.85,0,13.93,2.42,18.228,7.281c4.481-4.861,11.098-7.281,19.858-7.281
	c7.637,0,13.491,1.755,17.603,5.264c4.112,3.497,6.183,8.593,6.183,15.284v37.165H513.279z"/>
<path fill="#FFFFFF" d="M542.479,188.824c1.309,10.147,8.073,15.235,20.312,15.235c10.008,0,16.734-4.195,20.192-12.576h11.422
	c-3.223,9.312-7.795,15.461-13.731,18.464c-5.159,2.611-11.188,3.926-18.12,3.926c-10.242,0-18.072-2.74-23.549-8.202
	c-5.242-5.149-7.842-12.189-7.842-21.118c0-8.537,2.88-15.619,8.656-21.239c5.764-5.612,13.538-8.427,23.309-8.427
	c9.538,0,17.237,2.506,23.076,7.497c5.851,5.006,8.784,11.704,8.784,20.089v6.234L542.479,188.824z M577.9,169.662
	c-3.534-3.302-8.457-4.954-14.772-4.954c-6.305,0-11.268,1.651-14.893,4.954c-2.746,2.539-4.564,5.654-5.411,9.352h40.159
	C582.302,175.316,580.59,172.2,577.9,169.662"/>
<path fill="#FFFFFF" d="M645.987,210.748c-4.296,2.241-9.825,3.351-16.61,3.351c-18.846,0-28.279-8.696-28.279-26.071h11.317
	c0,5.98,1.263,10.165,3.813,12.507c2.542,2.353,6.96,3.525,13.267,3.525c9.611,0,14.428-2.461,14.428-7.39
	c0-2.999-3.16-5.15-9.468-6.466c-0.545-0.061-4.386-0.604-11.537-1.611c-12.929-1.846-19.376-7.282-19.376-16.273
	c0-5.849,2.681-10.356,8.063-13.514c4.46-2.679,9.734-4.023,15.822-4.023c18.229,0,27.384,7.926,27.458,23.767h-11.42
	c0-5.161-1.139-8.729-3.401-10.739c-2.269-1.996-6.302-2.994-12.072-2.994c-3.847,0-7.001,0.687-9.461,2.075
	c-2.466,1.389-3.701,3.193-3.701,5.428c0,2.839,3.052,4.764,9.124,5.775c2,0.379,6.041,1.069,12.12,2.072
	c12.774,2.005,19.153,7.509,19.153,16.503C655.228,202.987,652.155,207.681,645.987,210.748"/>
<path fill="#FFFFFF" d="M463.996,225.665h8.856c4.561,0,6.896,2.775,6.896,6.14c0,2.332-1.178,3.986-3.292,4.705
	c3.268,0.749,4.996,3.106,4.996,6.233c0,4.188-2.816,7.365-7.963,7.365h-9.494V225.665z M472.678,235.184
	c2.255,0,3.346-1.248,3.346-3.091c0-1.819-1.059-3.091-3.424-3.091h-4.818v6.182H472.678z M473.292,246.759
	c2.926,0,4.345-1.729,4.345-4.168s-1.515-4.171-4.531-4.171h-5.324v8.339H473.292z"/>
<path fill="#FFFFFF" d="M502.795,250.108h-4.37l-4.396-6.437c-0.685,0.065-1.373,0.153-2.048,0.153h-2.297v6.283h-3.831v-24.443
	h6.128c6.75,0,10.521,3.525,10.521,9.137c0,3.771-1.697,6.354-4.892,7.751L502.795,250.108z M491.846,240.557
	c4.832,0,6.787-2.137,6.787-5.756c0-3.682-2.017-5.799-6.787-5.799h-2.161v11.555H491.846z"/>
<path fill="#FFFFFF" d="M506.503,237.88c0-7.289,5.596-12.526,12.619-12.526c6.972,0,12.589,5.237,12.589,12.526
	c0,7.296-5.617,12.552-12.589,12.552C512.099,250.432,506.503,245.176,506.503,237.88 M527.822,237.88
	c0-5.205-3.604-9.124-8.7-9.124c-5.119,0-8.727,3.919-8.727,9.124c0,5.217,3.607,9.118,8.727,9.118
	C524.219,246.999,527.822,243.097,527.822,237.88"/>
<path fill="#FFFFFF" d="M535.362,237.88c0-7.289,5.598-12.526,12.602-12.526c6.979,0,12.593,5.237,12.593,12.526
	c0,7.296-5.614,12.552-12.593,12.552C540.96,250.432,535.362,245.176,535.362,237.88 M556.676,237.88
	c0-5.205-3.608-9.124-8.712-9.124c-5.106,0-8.722,3.919-8.722,9.124c0,5.217,3.615,9.118,8.722,9.118
	C553.067,246.999,556.676,243.097,556.676,237.88"/>
<path fill="#FFFFFF" d="M570.735,236.02l7.894-10.355h4.319l-8.66,11.435l9.634,13.009h-4.609l-7.545-10.205l-2.631,3.194v7.011
	h-3.796v-24.443h3.796v10.07c0,1.108-0.122,2.588-0.287,3.58C569.416,238.204,570.124,236.843,570.735,236.02"/>
<path fill="#FFFFFF" d="M585.51,245.365l3.109-1.729c1.156,1.901,2.635,3.415,5.598,3.415c2.5,0,4.274-1.333,4.274-3.349
	c0-2.101-1.449-3.062-4.134-4.238l-1.593-0.717c-3.558-1.585-5.699-3.372-5.699-7.151c0-3.625,2.798-6.219,6.856-6.219
	c3.219,0,5.418,1.221,6.889,3.85l-2.977,1.843c-0.933-1.615-2.013-2.386-3.912-2.386c-1.946,0-3.157,1.184-3.157,2.824
	c0,1.851,1.029,2.685,3.514,3.751l1.568,0.721c4.174,1.838,6.399,3.779,6.399,7.697c0,4.266-3.33,6.755-7.934,6.755
	C589.683,250.432,586.884,248.128,585.51,245.365"/>
<rect x="607.01" y="225.665" fill="#FFFFFF" width="3.75" height="24.443"/>
<path fill="#FFFFFF" d="M616.781,225.665h6.708c7.849,0,13.051,4.893,13.051,12.216c0,7.345-5.191,12.235-13.051,12.235h-6.708
	V225.665z M623.239,246.759c6.349,0,9.352-3.662,9.352-8.879c0-5.201-3.003-8.867-9.352-8.867h-2.674v17.746H623.239z"/>
<polygon fill="#FFFFFF" points="641.28,225.665 656.828,225.665 656.828,229.013 645.097,229.013 645.097,238.508 655.497,238.508 
	655.497,241.766 645.097,241.766 645.097,246.759 657.316,246.759 657.316,250.116 641.28,250.116 "/>
<path fill="#FFFFFF" d="M433.972,234.171h4.742c2.806,0,4.047,1.599,4.047,3.603c0,1.511-0.574,2.646-1.869,3.081
	c1.875,0.444,3.12,1.992,3.12,4.025c0,2.411-1.396,4.31-4.634,4.31h-5.406V234.171z M439.029,240.589
	c2.126,0,2.825-1.211,2.825-2.815c0-1.596-0.84-2.795-3.215-2.795h-3.78v5.61H439.029z M439.288,248.397
	c2.806,0,3.813-1.518,3.813-3.517c0-2.007-1.148-3.522-3.837-3.522h-4.405v7.039H439.288z"/>
<path fill="#FFFFFF" d="M451.219,244.519l-5.694-10.348h1.027l4.806,8.702c0.188,0.367,0.352,0.903,0.352,0.903
	s0.173-0.536,0.393-0.903l4.767-8.702h0.954l-5.68,10.367v4.651h-0.924V244.519z"/>
<path fill-rule="evenodd" clip-rule="evenodd" fill="#FFFFFF" d="M734.941,65.744c-3.716-14.094-2.175-24.08,11.458-29.067
	c2.447-0.908,6.274-2.036,7.058,2.651C755.777,53.392,747.352,59.802,734.941,65.744"/>
<path fill-rule="evenodd" clip-rule="evenodd" fill="#FFFFFF" d="M672.79,74.727c-12.18-7.964-17.688-16.421-10.856-29.234
	c1.229-2.333,3.32-5.717,7.024-2.761C680.073,51.619,678.065,62.011,672.79,74.727"/>
<path fill-rule="evenodd" clip-rule="evenodd" fill="#FFFFFF" d="M639.764,63.011c-11.299,9.089-20.974,11.699-30.903,1.216
	c-1.809-1.883-4.356-4.931-0.425-7.528C620.261,48.906,629.421,54.034,639.764,63.011"/>
<path fill-rule="evenodd" clip-rule="evenodd" fill="#FFFFFF" d="M696.92,107.627c-5.536-20.824-3.22-35.572,17.127-42.938
	c3.681-1.33,9.394-3,10.546,3.907C728.065,89.379,715.465,98.847,696.92,107.627"/>
<path fill-rule="evenodd" clip-rule="evenodd" fill="#FFFFFF" d="M694.94,152.667c3.807-19.072,11.548-30.095,30.881-27.95
	c3.505,0.389,8.745,1.311,6.939,7.361C727.298,150.298,713.382,152.946,694.94,152.667"/>
<path fill-rule="evenodd" clip-rule="evenodd" fill="#FFFFFF" d="M682.311,45.443c-0.652-14.834,3.062-24.464,17.744-26.54
	c2.645-0.381,6.694-0.699,6.457,4.126C705.775,37.542,695.982,42.15,682.311,45.443"/>
<path fill-rule="evenodd" clip-rule="evenodd" fill="#FFFFFF" d="M641.589,56.884c-8.85-6.146-12.688-12.534-7.147-21.964
	c1.003-1.698,2.687-4.197,5.349-1.937C647.82,39.787,645.979,47.496,641.589,56.884"/>
<path fill-rule="evenodd" clip-rule="evenodd" fill="#FFFFFF" d="M608.946,113.593c-8.841-6.146-12.67-12.532-7.137-21.966
	c1.001-1.71,2.682-4.193,5.357-1.944C615.19,96.492,613.338,104.208,608.946,113.593"/>
<path fill-rule="evenodd" clip-rule="evenodd" fill="#FFFFFF" d="M604.159,117.877c-12.74,18.339-25.974,26.277-45.536,14.801
	c-3.531-2.086-8.696-5.563-4.008-11.103C568.706,104.962,584.68,108.775,604.159,117.877"/>
<path fill-rule="evenodd" clip-rule="evenodd" fill="#FFFFFF" d="M646.144,130.022c-24.401-10.273-36.836-23.692-28.189-49.243
	c1.567-4.609,4.354-11.477,11.93-7.395C652.628,85.655,652.026,105.178,646.144,130.022"/>
<path fill-rule="evenodd" clip-rule="evenodd" fill="#FFFFFF" d="M743.045,142.461c8.136-19.115,18.685-28.86,38.677-22.081
	c3.611,1.216,8.984,3.407,5.755,9.354C777.794,147.54,762.484,147.083,743.045,142.461"/>
<path fill-rule="evenodd" clip-rule="evenodd" fill="#FFFFFF" d="M735.771,86.915c4.903-9.591,10.675-14.33,20.636-10.37
	c1.807,0.71,4.472,1.961,2.596,4.917C753.357,90.362,745.543,89.751,735.771,86.915"/>
<path fill-rule="evenodd" clip-rule="evenodd" fill="#FFFFFF" d="M735.771,118.271c4.903-9.595,10.675-14.339,20.636-10.376
	c1.807,0.719,4.472,1.969,2.596,4.934C753.357,121.723,745.543,121.112,735.771,118.271"/>
<path fill-rule="evenodd" clip-rule="evenodd" fill="#FFFFFF" d="M713.805,168.055c9.809-4.452,17.277-4.575,22.605,4.73
	c0.963,1.68,2.276,4.323-1.03,5.47C725.414,181.704,719.688,176.366,713.805,168.055"/>
<path fill-rule="evenodd" clip-rule="evenodd" fill="#FFFFFF" d="M740.813,142.508c-5.51-6.27-17.104,6.628-19.454,7.292
	c-6.599,2.315-12.521,4.979-18.807,7.914c-6.052,3.239-8.673,0.966-8.748-5.392c-3.909-12.385,0.562-21.328,12.293-24.787
	c4.803-1.412,9.505-2.779,13.2-6.707c2.598-0.69,8.197-2.6,14.088-3.031c-3.424-0.94-6.997-2.879-9.721-3.629
	c-4.224-1.161-9.293,1.481-12.998,0.461c5.529-8.623,19.806-9.785,23.795-25.515c-5.396,3.152-9.502,4.082-13.312,6.297
	c-2.702,1.581-8.099,8.508-10.568,9.944c-3.155-0.785-5.929,0.102-8.479,1.956c-2.629,2.069-4.694,2.455-8.336,3.112
	c-6.483-4.671-0.888-13.813-6.861-18.753c-0.404-8.924,1.592-18.299-1.243-26.78c-2.676-8.006-3.744-17.365-3.744-17.365
	c-2.788-1.006-2.034,6.989-2.917,10.047c0.015,4.727,2.082,10.85,2.106,15.576c-0.57,2.776-2.759,19.187-7.184,15.359
	c-5.879-5.074-9.56-17.801-18.379-18.42c-7.439-3.77-9.021-8.813-13.352-12.24c-1.306,8.267,4.365,12.753,9.689,17.435
	c1.412,4.98,10.995,3.858,10.26,9.918c-0.614,2.548,1.791,6.102,3.328,7.947c7.913,9.044,11.865,19.907,9.865,33.522
	c-0.876,5.481,2.19,11.512-2.134,16.674c-2.694-0.105-4.563-1.872-6.572-3.372c-4.438-3.697-8.986-6.716-15.259-7.607
	c-6.146,0.494-11.367-0.65-16.923-3.077c-1.997-0.506-6.066-2.525-6.338-2.688c-8.176-1.539-14.264-9.884-23.719-7.205
	c6.812,4.501,15.176,7.262,20.437,13.52c3.349,4,6.807,4.12,6.807,4.12c6.915,1.31,1.771-0.063,6.665,3.54
	c1.421,0.816,5.731,3.58,7.179,2.815c28.516,9.788,33.354,23.929,32.551,51.858c-0.236,8.468-0.773,34.038-1.404,42.481
	c-0.449,5.887-0.218,12.774,5.611,12.703c6.088-0.077,8.003-8.685,7.95-12.718c-0.106-8.498-0.386-34.092-0.375-42.587
	c0.008-15.171,9.173-33.742,23.846-30.715c4.359,0.895,16.595-8.661,17.439-13.335C738.163,146.471,738.991,142.908,740.813,142.508
	"/>
<path fill-rule="evenodd" clip-rule="evenodd" fill="#FFFFFF" d="M670.038,135.996c-12.827-6.483-19.293-14.136-14.413-27.339
	c0.878-2.38,2.434-5.908,6.407-3.428C673.98,112.709,673.44,123.048,670.038,135.996"/>
<path fill-rule="evenodd" clip-rule="evenodd" fill="#FFFFFF" d="M695.541,74.389c-5.768-9.088-6.819-16.466,1.944-23.012
	c1.582-1.185,4.097-2.822,5.692,0.287C707.92,61.049,703.236,67.435,695.541,74.389"/>
<path fill-rule="evenodd" clip-rule="evenodd" fill="#FFFFFF" d="M730.796,156.111c13.374-10.645,24.83-13.702,36.649-1.43
	c2.13,2.225,5.146,5.776,0.495,8.832C753.926,172.659,743.061,166.634,730.796,156.111"/>
</svg>
